# xmcd
#
# Track frame offsets:
#	200
#	19955
#	41452
#	57175
#	76762
#	92625
#	108112
#	120837
#	138812
#	156177
#
# Disc length: 2398 seconds
#
# Revision: 1
# Processed by: cddbd v1.4PL0 Copyright (c) Steve Scherf et al.
# Submitted via: audiograbber 1.80
#
DISCID=69095c0a
DTITLE=Down Right Tight - Socking´the Soul From the Big House
DYEAR=1900
DGENRE=
TTITLE0=Sesame Street
TTITLE1=Let´s Stay Together
TTITLE2=Save Your Love For Me
TTITLE3=Big Boss Man
TTITLE4=Let´s Have A Natural Ball
TTITLE5=The Chockin´ Kind
TTITLE6=Don´t Fight It
TTITLE7=Running´Blue
TTITLE8=Open The Door To Your Heart
TTITLE9=Call It Quits
EXTD=
EXTT0=
EXTT1=
EXTT2=
EXTT3=
EXTT4=
EXTT5=
EXTT6=
EXTT7=
EXTT8=
EXTT9=
PLAYORDER=
